<svg width="76" height="16" viewBox="0 0 76 16" fill="none" xmlns="http://www.w3.org/2000/svg">
<path d="M0 15.3763V4.46719H2.88352V6.39191L2.5 6.5C2.72727 5.8608 3.36174 5.25554 3.89205 4.88622C4.42235 4.51691 5.3125 4.32514 6.05114 4.32514C6.79924 4.32514 7.43608 4.51217 7.96165 4.88622C8.48722 5.25554 8.83759 5.75744 9.01278 6.39191H9.12642C9.34896 5.76691 9.75142 5.26738 10.3338 4.89333C10.9209 4.51454 11.6146 4.32514 12.4148 4.32514C13.4328 4.32514 14.259 4.64948 14.8935 5.29816C15.5327 5.94209 15.8523 6.85592 15.8523 8.03963V15.3763H12.8338V8.63622C12.8338 8.03016 12.6728 7.57562 12.3509 7.27259C12.0289 6.96956 11.6264 6.81804 11.1435 6.81804C10.5942 6.81804 10.1657 6.99323 9.85795 7.34361C9.55019 7.68925 9.39631 8.14617 9.39631 8.71435V15.3763H6.46307V8.5723C6.46307 8.03727 6.30919 7.61113 6.00142 7.29389C5.69839 6.97666 5.2983 6.81804 4.80114 6.81804C4.46496 6.81804 4.16193 6.90327 3.89205 7.07372C3.62689 7.23944 3.41619 7.47382 3.25994 7.77685C3.10369 8.07514 3.02557 8.42552 3.02557 8.82799V15.3763H0Z" fill="#111111"/>
<path d="M22.4032 15.8764C21.281 15.8764 20.4436 15.6581 19.634 15.2191C18.8291 14.7756 18.2088 14.1492 17.7732 13.3399C17.3376 12.526 17.1198 11.5636 17.1198 10.4525C17.1198 9.36885 17.3376 8.41781 17.7732 7.59937C18.2088 6.78092 18.822 6.14308 19.6127 5.68585C20.4081 5.22862 21.3409 5 22.411 5C22.4509 5 25.5716 5.00034 25.6112 5.00103C26.2858 5.01276 26.916 5.12444 27.5019 5.33607C28.1269 5.55554 28.6714 5.88703 29.1354 6.33055C29.6042 6.77406 29.9687 7.33188 30.2292 8.00401C30.4896 8.67157 30.6198 9.45344 30.6198 10.3496V11.1521H22.2429V9.175H27.7718C27.7718 8.75434 27.6771 8.54812 27.4877 8.22349C27.2983 7.89885 27.0355 7.64509 26.6993 7.4622C26.3854 7.28466 26.0227 7.19119 25.6112 7.18179C25.5882 7.18126 22.484 7.181 22.4607 7.181C22.0014 7.181 21.5942 7.28388 21.2391 7.48963C20.8887 7.69081 20.6141 7.96286 20.4152 8.30579C20.2164 8.64414 20.1146 9.02136 20.1098 9.43744V11.1589C20.1098 11.6802 20.2093 12.1305 20.4081 12.51C20.6117 12.8895 20.8982 13.1822 21.2675 13.3879C21.6368 13.5937 21.8966 13.6946 22.4032 13.6946C22.4344 13.6946 25.4841 13.6946 25.6198 13.6989C25.9199 13.6911 26.3323 13.6423 26.5857 13.5594C26.8651 13.4679 27.1042 13.3308 27.303 13.1479C27.5019 12.965 27.6676 12.2789 27.7718 12.0137L30.634 12.0346C30.6198 12.9794 30.1226 13.8703 29.6823 14.355C29.2467 14.8351 28.6832 15.21 27.9919 15.4798C27.3419 15.7308 26.4608 15.8631 25.6198 15.8764C25.5725 15.8772 22.4511 15.8764 22.4032 15.8764Z" fill="#111111"/>
<path d="M54.3191 15.3764C53.2158 15.3764 52.2618 15.1501 51.4568 14.6975C50.6567 14.2404 50.0388 13.605 49.6031 12.7913C49.1675 11.973 48.9497 11.0245 48.9497 9.94561C48.9497 8.85763 49.1675 7.90679 49.6031 7.09309C50.0388 6.27482 50.6567 5.6394 51.4568 5.18683C52.2618 4.7297 53.2158 4.50113 54.3191 4.50113C54.4029 4.50113 57.2386 4.49849 57.3207 4.50113C58.3188 4.53324 59.1875 4.76049 59.9269 5.18287C60.7318 5.63544 61.3521 6.27086 61.7877 7.08913C62.2233 7.90283 62.4411 8.85367 62.4411 9.94165C62.4411 11.0205 62.2233 11.969 61.7877 12.7873C61.3521 13.601 60.7318 14.2364 59.9269 14.6936C59.1689 15.1223 58.275 15.3479 57.2452 15.3705C57.1878 15.3718 54.3773 15.3764 54.3191 15.3764ZM54.3333 13.1136C54.4389 13.1136 57.1717 13.1217 57.2699 13.1096C57.6387 13.064 58.0777 12.9147 58.3431 12.6982C58.6793 12.4193 58.9326 12.0399 59.103 11.5599C59.2782 11.0799 59.3658 10.5336 59.3658 9.92108C59.3658 9.30852 59.2782 8.76224 59.103 8.28225C58.9326 7.80226 58.6793 7.42284 58.3431 7.14398C58.0608 6.90979 57.72 6.77394 57.3207 6.73643C57.2446 6.72928 54.4136 6.72967 54.3333 6.72967C53.8266 6.72967 53.4005 6.86909 53.0548 7.14795C52.7139 7.4268 52.4559 7.80622 52.2807 8.28621C52.1102 8.7662 52.025 9.31248 52.025 9.92504C52.025 10.5376 52.1102 11.0839 52.2807 11.5639C52.4559 12.0439 52.7139 12.4233 53.0548 12.7021C53.4005 12.9764 53.8266 13.1136 54.3333 13.1136Z" fill="#111111"/>
<path d="M63.9398 15.3764V4.46729H66.9654V15.3764H63.9398ZM65.5 3.5C64.9752 3.5 65.2923 2.70398 64.9167 2.33333C64.5466 1.95681 63.75 2.27361 63.75 1.75C63.75 1.23227 64.5466 1.53731 64.9167 1.16667C65.2923 0.790139 64.9752 0 65.5 0C66.0248 0 65.7132 0.790139 66.0833 1.16667C66.459 1.53731 67.25 1.23227 67.25 1.75C67.25 2.27361 66.459 1.95681 66.0833 2.33333C65.7132 2.70398 66.0248 3.5 65.5 3.5Z" fill="#111111"/>
<path d="M68.6259 15.3764V4.46729H71.5591V6.3707H71.6727C71.8716 5.69361 72.2054 5.18225 72.6742 4.83661C73.1429 4.48623 74.2159 4.37214 74.8267 4.37214C74.9782 4.37214 75.1416 4.38161 75.3168 4.40055C75.4919 4.41949 75.6458 4.44553 75.7784 4.47867V7.16333C75.6364 7.12072 75.4399 7.08284 75.1889 7.0497C74.938 7.01655 74.7083 6.99998 74.5 6.99998C74.0549 6.99998 73.124 7.03594 72.7736 7.23007C72.4279 7.41947 72.1533 7.68462 71.9497 8.02553C71.7509 8.36644 71.6514 8.75943 71.6514 9.2045V15.3764H68.6259Z" fill="#111111"/>
<path d="M32 15.3764V4.4673H34.8835V6.39202L34.5 6.50011C34.7273 5.86091 35.3617 5.25565 35.892 4.88634C36.4223 4.51702 37.3125 4.32526 38.0511 4.32526C38.7992 4.32526 39.4361 4.51228 39.9616 4.88634C40.4872 5.25565 40.8376 5.75755 41.0128 6.39202H41.1264C41.349 5.76702 41.7514 5.26749 42.3338 4.89344C42.9209 4.51465 43.6146 4.32526 44.4148 4.32526C45.4328 4.32526 46.259 4.64959 46.8935 5.29827C47.5327 5.94221 47.8523 6.85603 47.8523 8.03974V15.3764H44.8338V8.63633C44.8338 8.03027 44.6728 7.57573 44.3508 7.2727C44.0289 6.96967 43.6264 6.81815 43.1435 6.81815C42.5942 6.81815 42.1657 6.99334 41.858 7.34372C41.5502 7.68937 41.3963 8.14628 41.3963 8.71446V15.3764H38.4631V8.57241C38.4631 8.03738 38.3092 7.61124 38.0014 7.29401C37.6984 6.97677 37.2983 6.81815 36.8011 6.81815C36.465 6.81815 36.1619 6.90338 35.892 7.07384C35.6269 7.23955 35.4162 7.47393 35.2599 7.77696C35.1037 8.07525 35.0256 8.42564 35.0256 8.8281V15.3764H32Z" fill="#111111"/>
</svg>
