<svg width="99" height="16" viewBox="0 0 99 16" fill="none" xmlns="http://www.w3.org/2000/svg">
<rect width="4" height="4" fill="#111111"/>
<rect x="6" width="4" height="4" fill="#111111"/>
<rect x="12" width="4" height="4" fill="#111111"/>
<rect y="6" width="4" height="4" fill="#111111"/>
<rect x="6" y="6" width="4" height="4" fill="#111111"/>
<rect y="12" width="4" height="4" fill="#111111"/>
<rect x="6" y="12" width="4" height="4" fill="#111111"/>
<rect x="12" y="12" width="4" height="4" fill="#111111"/>
<rect x="12" y="6" width="4" height="4" fill="#111111"/>
<path d="M23 15.3763V4.46719H25.8835V6.39191L25.5 6.5C25.7273 5.8608 26.3617 5.25554 26.892 4.88622C27.4223 4.51691 28.3125 4.32514 29.0511 4.32514C29.7992 4.32514 30.4361 4.51217 30.9616 4.88622C31.4872 5.25554 31.8376 5.75744 32.0128 6.39191H32.1264C32.349 5.76691 32.7514 5.26738 33.3338 4.89333C33.9209 4.51454 34.6146 4.32514 35.4148 4.32514C36.4328 4.32514 37.259 4.64948 37.8935 5.29816C38.5327 5.94209 38.8523 6.85592 38.8523 8.03963V15.3763H35.8338V8.63622C35.8338 8.03016 35.6728 7.57562 35.3509 7.27259C35.0289 6.96956 34.6264 6.81804 34.1435 6.81804C33.5942 6.81804 33.1657 6.99323 32.858 7.34361C32.5502 7.68925 32.3963 8.14617 32.3963 8.71435V15.3763H29.4631V8.5723C29.4631 8.03727 29.3092 7.61113 29.0014 7.29389C28.6984 6.97666 28.2983 6.81804 27.8011 6.81804C27.465 6.81804 27.1619 6.90327 26.892 7.07372C26.6269 7.23944 26.4162 7.47382 26.2599 7.77685C26.1037 8.07514 26.0256 8.42552 26.0256 8.82799V15.3763H23Z" fill="#111111"/>
<path d="M45.4032 15.8764C44.281 15.8764 43.4436 15.6581 42.634 15.2191C41.8291 14.7756 41.2088 14.1492 40.7732 13.3399C40.3376 12.526 40.1198 11.5636 40.1198 10.4525C40.1198 9.36885 40.3376 8.41781 40.7732 7.59937C41.2088 6.78092 41.822 6.14308 42.6127 5.68585C43.4081 5.22862 44.3409 5 45.411 5C45.4509 5 48.5716 5.00034 48.6112 5.00103C49.2858 5.01276 49.916 5.12444 50.5019 5.33607C51.1269 5.55554 51.6714 5.88703 52.1354 6.33055C52.6042 6.77406 52.9687 7.33188 53.2292 8.00401C53.4896 8.67157 53.6198 9.45344 53.6198 10.3496V11.1521H45.2429V9.175H50.7718C50.7718 8.75434 50.6771 8.54812 50.4877 8.22349C50.2983 7.89885 50.0355 7.64509 49.6993 7.4622C49.3854 7.28466 49.0227 7.19119 48.6112 7.18179C48.5882 7.18126 45.484 7.181 45.4607 7.181C45.0014 7.181 44.5942 7.28388 44.2391 7.48963C43.8887 7.69081 43.6141 7.96286 43.4152 8.30579C43.2164 8.64414 43.1146 9.02136 43.1098 9.43744V11.1589C43.1098 11.6802 43.2093 12.1305 43.4081 12.51C43.6117 12.8895 43.8982 13.1822 44.2675 13.3879C44.6368 13.5937 44.8966 13.6946 45.4032 13.6946C45.4344 13.6946 48.4841 13.6946 48.6198 13.6989C48.9199 13.6911 49.3323 13.6423 49.5857 13.5594C49.8651 13.4679 50.1042 13.3308 50.303 13.1479C50.5019 12.965 50.6676 12.2789 50.7718 12.0137L53.634 12.0346C53.6198 12.9794 53.1226 13.8703 52.6823 14.355C52.2467 14.8351 51.6832 15.21 50.9919 15.4798C50.3419 15.7308 49.4608 15.8631 48.6198 15.8764C48.5725 15.8772 45.4511 15.8764 45.4032 15.8764Z" fill="#111111"/>
<path d="M77.3191 15.3764C76.2158 15.3764 75.2618 15.1501 74.4568 14.6975C73.6567 14.2404 73.0388 13.605 72.6031 12.7913C72.1675 11.973 71.9497 11.0245 71.9497 9.94561C71.9497 8.85763 72.1675 7.90679 72.6031 7.09309C73.0388 6.27482 73.6567 5.6394 74.4568 5.18683C75.2618 4.7297 76.2158 4.50113 77.3191 4.50113C77.4029 4.50113 80.2386 4.49849 80.3207 4.50113C81.3188 4.53324 82.1875 4.76049 82.9269 5.18287C83.7318 5.63544 84.3521 6.27086 84.7877 7.08913C85.2233 7.90283 85.4411 8.85367 85.4411 9.94165C85.4411 11.0205 85.2233 11.969 84.7877 12.7873C84.3521 13.601 83.7318 14.2364 82.9269 14.6936C82.1689 15.1223 81.275 15.3479 80.2452 15.3705C80.1878 15.3718 77.3773 15.3764 77.3191 15.3764ZM77.3333 13.1136C77.4389 13.1136 80.1717 13.1217 80.2699 13.1096C80.6387 13.064 81.0777 12.9147 81.3431 12.6982C81.6793 12.4193 81.9326 12.0399 82.103 11.5599C82.2782 11.0799 82.3658 10.5336 82.3658 9.92108C82.3658 9.30852 82.2782 8.76224 82.103 8.28225C81.9326 7.80226 81.6793 7.42284 81.3431 7.14398C81.0608 6.90979 80.72 6.77394 80.3207 6.73643C80.2446 6.72928 77.4136 6.72967 77.3333 6.72967C76.8266 6.72967 76.4005 6.86909 76.0548 7.14795C75.7139 7.4268 75.4559 7.80622 75.2807 8.28621C75.1102 8.7662 75.025 9.31248 75.025 9.92504C75.025 10.5376 75.1102 11.0839 75.2807 11.5639C75.4559 12.0439 75.7139 12.4233 76.0548 12.7021C76.4005 12.9764 76.8266 13.1136 77.3333 13.1136Z" fill="#111111"/>
<path d="M86.9398 15.3764V4.46729H89.9654V15.3764H86.9398ZM88.5 3.5C87.9752 3.5 88.2923 2.70398 87.9167 2.33333C87.5466 1.95681 86.75 2.27361 86.75 1.75C86.75 1.23227 87.5466 1.53731 87.9167 1.16667C88.2923 0.790139 87.9752 0 88.5 0C89.0248 0 88.7132 0.790139 89.0833 1.16667C89.459 1.53731 90.25 1.23227 90.25 1.75C90.25 2.27361 89.459 1.95681 89.0833 2.33333C88.7132 2.70398 89.0248 3.5 88.5 3.5Z" fill="#111111"/>
<path d="M91.6259 15.3764V4.46729H94.5591V6.3707H94.6727C94.8716 5.69361 95.2054 5.18225 95.6742 4.83661C96.1429 4.48623 97.2159 4.37214 97.8267 4.37214C97.9782 4.37214 98.1416 4.38161 98.3168 4.40055C98.4919 4.41949 98.6458 4.44553 98.7784 4.47867V7.16333C98.6364 7.12072 98.4399 7.08284 98.1889 7.0497C97.938 7.01655 97.7083 6.99998 97.5 6.99998C97.0549 6.99998 96.124 7.03594 95.7736 7.23007C95.4279 7.41947 95.1533 7.68462 94.9497 8.02553C94.7509 8.36644 94.6514 8.75943 94.6514 9.2045V15.3764H91.6259Z" fill="#111111"/>
<path d="M55 15.3764V4.4673H57.8835V6.39202L57.5 6.50011C57.7273 5.86091 58.3617 5.25565 58.892 4.88634C59.4223 4.51702 60.3125 4.32526 61.0511 4.32526C61.7992 4.32526 62.4361 4.51228 62.9616 4.88634C63.4872 5.25565 63.8376 5.75755 64.0128 6.39202H64.1264C64.349 5.76702 64.7514 5.26749 65.3338 4.89344C65.9209 4.51465 66.6146 4.32526 67.4148 4.32526C68.4328 4.32526 69.259 4.64959 69.8935 5.29827C70.5327 5.94221 70.8523 6.85603 70.8523 8.03974V15.3764H67.8338V8.63633C67.8338 8.03027 67.6728 7.57573 67.3508 7.2727C67.0289 6.96967 66.6264 6.81815 66.1435 6.81815C65.5942 6.81815 65.1657 6.99334 64.858 7.34372C64.5502 7.68937 64.3963 8.14628 64.3963 8.71446V15.3764H61.4631V8.57241C61.4631 8.03738 61.3092 7.61124 61.0014 7.29401C60.6984 6.97677 60.2983 6.81815 59.8011 6.81815C59.465 6.81815 59.1619 6.90338 58.892 7.07384C58.6269 7.23955 58.4162 7.47393 58.2599 7.77696C58.1037 8.07525 58.0256 8.42564 58.0256 8.8281V15.3764H55Z" fill="#111111"/>
</svg>
